<svg id="Ebene_2" data-name="Ebene 2" xmlns="http://www.w3.org/2000/svg" viewBox="0 0 254.38 148.5"><title>verouh</title><polygon points="25.4 112.41 15.51 140.29 5.46 112.41 0 112.41 0 113.48 12.84 148.06 18.03 148.06 30.88 113.68 30.92 112.41 25.4 112.41"/><polygon points="70.69 117.5 70.69 112.41 47.36 112.41 47.36 148.06 70.69 148.06 70.69 143.02 52.8 143.02 52.8 132.24 69.17 132.24 69.17 127.15 52.8 127.15 52.8 117.5 70.69 117.5"/><path d="M478.33,548.61a10.39,10.39,0,0,0,7.11-10.27c0-6.64-4.52-10.93-11.52-10.93H459.7v35.65h5.43V549.41h7.5l9.07,13.65h5.56v-1.24Zm-13.2-16.11h8.55c3.95,0,6.12,2.09,6.12,5.89s-2.11,5.93-6.12,5.93h-8.55Z" transform="translate(-371.08 -415)"/><path d="M517.79,527c-9.93,0-15.86,6.83-15.86,18.27s5.93,18.26,15.86,18.26,15.85-6.82,15.85-18.26S527.71,527,517.79,527Zm10.26,18.27c0,4.88-1.33,13.07-10.26,13.07s-10.27-8.19-10.27-13.07,1.33-13.08,10.27-13.08S528.05,540.35,528.05,545.24Z" transform="translate(-371.08 -415)"/><path d="M573.05,527.41v22.8c0,5.29-2.94,8.2-8.29,8.2s-8.25-2.91-8.25-8.2v-22.8h-5.44v22.9c0,8.14,5.24,13.19,13.69,13.19,8.63,0,13.78-4.93,13.78-13.19v-22.9Z" transform="translate(-371.08 -415)"/><polygon points="248.94 112.41 248.94 127.1 232.3 127.1 232.3 112.41 226.86 112.41 226.86 148.06 232.3 148.06 232.3 132.24 248.94 132.24 248.94 148.06 254.38 148.06 254.38 112.41 248.94 112.41"/><path d="M525.8,421l-19.44,33.68h-.09l-1.73,3-6,10.35-6-10.35-1.74-3h-.08L471.32,421H525.8m10.39-6H460.93l26.37,45.68h.09L495.66,475h5.81l8.26-14.32h.09L536.19,415Z" transform="translate(-371.08 -415)"/><path d="M498.54,475.33l9.13,15.81h0l2.42,4.2H487l2.41-4.2h0l9.12-15.81m2.93-7.33h-5.81l0,.07.05.1-16.72,29h0l-2.42,4.2h43.83l-2.42-4.2h0L501.35,468.2l.08-.13,0-.07Z" transform="translate(-371.08 -415)"/><path d="M455.42,430.76l23.65,41-7.22,12.52L441,430.76h14.44m3.47-6H430.58l41.27,71.48L486,471.72l-27.11-47Z" transform="translate(-371.08 -415)"/><path d="M555.61,430.76l-30.87,53.48-7.23-12.52,23.65-41h14.45m10.39-6H537.7l-27.12,47,14.16,24.52L566,424.76Z" transform="translate(-371.08 -415)"/></svg>